<?xml version="1.0" encoding="UTF-8"?>
<!-- Generator: Adobe Illustrator 22.0.1, SVG Export Plug-In . SVG Version: 6.00 Build 0)  -->
<svg version="1.1" id="Warstwa_1" xmlns="http://www.w3.org/2000/svg" xmlns:xlink="http://www.w3.org/1999/xlink" x="0px" y="0px" viewBox="0 0 511.9 93.3" style="enable-background:new 0 0 511.9 93.3;" xml:space="preserve">
<polygon points="354.2,53 354.2,65.1 378.5,65.1 388.2,87 402,87 386.7,53 "/>
<polygon points="355,6.3 318.6,87 332.4,87 367.8,6.3 "/>
<path d="M45.8,17.5c12.8,0,22.3,7,25.3,18.6l0.5,1.8h13.1l-0.7-3C80,16.8,65,5,45.8,5C22.5,5,4.3,23.3,4.3,46.6  c0,23.3,18.2,41.6,41.5,41.6C65,88.3,80,76.5,84,58.3l0.7-3H71.6l-0.5,1.8c-3,11.7-12.5,18.6-25.3,18.6c-16.3,0-28.6-12.5-28.6-29.2  C17.2,30,29.5,17.5,45.8,17.5"/>
<polygon points="119.1,86.7 176.2,86.7 176.2,74.6 131.9,74.6 131.9,53 171.8,53 171.8,40.8 131.9,40.8 131.9,18.7 176.2,18.7   176.2,6.6 119.1,6.6 "/>
<polygon points="250,55.1 221.1,6.6 211.1,6.6 211.1,86.7 223.9,86.7 223.7,34.9 245.9,71.9 254,71.9 276,35.2 276,86.7 288.7,86.7   288.7,6.6 278.9,6.6 "/>
<path d="M474.5,57.7c11.7-3.7,18.8-12.8,18.8-24.6c0-15.8-12.5-26.5-31.1-26.5h-30.4v12.1l30.2,0c11.3,0,18.6,5.6,18.6,14.4  c0,8.7-7.3,14.2-18.6,14.2l-30.2,0v39.5h12.8V59.4h15.1l23.6,27.3h16.3L474.5,57.7z"/>
</svg>