<svg width="64" height="64" viewBox="0 0 64 64" fill="none" xmlns="http://www.w3.org/2000/svg">
<path d="M64.064 32C64.064 14.998 50.71 1.05605 33.92 0.0620469C33.574 0.0240469 33.228 -0.00195312 32.874 -0.00195312C32.77 -0.00195312 32.666 0.00804688 32.562 0.0120469C32.376 0.00804688 32.19 -0.00195312 32 -0.00195312C14.32 -0.00195312 -0.0639648 14.354 -0.0639648 32C-0.0639648 49.646 14.32 64.002 32 64.002C32.188 64.002 32.376 63.99 32.562 63.986C32.666 63.99 32.77 64.002 32.874 64.002C33.226 64.002 33.572 63.978 33.92 63.938C50.71 62.944 64.064 49.002 64.064 32ZM58.098 42.302C56.996 41.982 54.228 41.288 49.344 40.714C49.748 37.952 49.97 35.034 49.97 32C49.97 29.608 49.832 27.292 49.576 25.062C55.764 24.322 58.476 23.392 58.656 23.328L57.912 21.228C59.302 24.546 60.072 28.184 60.072 32C60.072 35.636 59.368 39.11 58.098 42.302ZM17.842 32C17.842 29.762 17.99 27.576 18.262 25.474C21.504 25.728 25.384 25.918 29.94 25.96V39.838C25.502 39.88 21.712 40.06 18.522 40.306C18.082 37.668 17.842 34.878 17.842 32ZM33.934 4.26405C38.838 5.68605 43.038 12.494 44.918 21.52C41.894 21.76 38.254 21.938 33.934 21.978V4.26405ZM29.942 4.31205V21.976C25.67 21.934 22.012 21.758 18.938 21.524C20.858 12.61 25.09 5.85205 29.942 4.31205ZM29.942 43.826V59.684C25.416 58.248 21.43 52.274 19.356 44.246C22.34 44.026 25.864 43.868 29.942 43.826ZM33.934 59.736V43.826C38.056 43.866 41.562 44.03 44.51 44.26C42.472 52.394 38.51 58.412 33.934 59.736ZM33.934 39.84V25.962C38.516 25.92 42.37 25.726 45.57 25.462C45.832 27.568 45.976 29.756 45.976 31.998C45.976 34.882 45.744 37.678 45.318 40.318C42.168 40.062 38.394 39.882 33.934 39.84ZM57.176 19.62C56.572 19.808 54.048 20.526 48.988 21.122C47.86 15.126 45.82 10 43.168 6.29805C49.264 8.94805 54.238 13.692 57.178 19.62H57.176ZM22.426 5.66205C19.162 9.40805 16.5 14.798 15.044 21.17C10.514 20.68 7.79804 20.102 6.71204 19.84C9.88204 13.3 15.526 8.16805 22.424 5.66405L22.426 5.66205ZM5.22804 23.574C5.99804 23.782 8.91004 24.508 14.326 25.106C14.016 27.32 13.846 29.626 13.846 32C13.846 35.018 14.118 37.92 14.612 40.668C9.96204 41.17 7.10204 41.772 5.82004 42.08C4.60604 38.948 3.93203 35.552 3.93203 31.998C3.93203 29.064 4.38804 26.232 5.23004 23.572L5.22804 23.574ZM7.56804 45.772C9.02204 45.464 11.626 44.992 15.48 44.59C16.998 50.196 19.466 54.94 22.426 58.338C16.106 56.042 10.846 51.54 7.56804 45.772ZM43.166 57.698C45.556 54.368 47.446 49.884 48.622 44.648C52.586 45.102 55.074 45.636 56.328 45.952C53.328 51.144 48.712 55.29 43.166 57.698Z" fill="#FF8200"/>
</svg>

