<svg width="64" height="64" viewBox="0 0 64 64" fill="none" xmlns="http://www.w3.org/2000/svg">
<path d="M42.5052 2.46354C42.5052 1.10417 43.849 0 45.5104 0C47.1719 0 48.5156 1.10417 48.5156 2.46354V13.2552C48.5156 14.6146 47.1719 15.7187 45.5104 15.7187C43.849 15.7187 42.5052 14.6146 42.5052 13.2552V2.46354ZM15.4219 2.46354C15.4219 1.10417 16.7656 0 18.4271 0C20.0885 0 21.4323 1.10417 21.4323 2.46354V13.2552C21.4323 14.6146 20.0885 15.7187 18.4271 15.7187C16.7656 15.7187 15.4219 14.6146 15.4219 13.2552V2.46354ZM21.349 44.0417C20.6875 43.4062 20.6667 42.3542 21.3021 41.6927C21.9375 41.0313 22.9896 41.0104 23.651 41.6458L28.8073 46.6302L40.276 34.349C40.901 33.6771 41.9531 33.6406 42.625 34.2656C43.2969 34.8906 43.3333 35.9427 42.7083 36.6146L30.0885 50.1354L30.0677 50.1562C29.4323 50.8177 28.3802 50.8385 27.7187 50.2031L21.349 44.0417ZM3.33333 23.6042H60.6667V11.1823C60.6667 10.7656 60.4948 10.3854 60.2187 10.1042C59.9427 9.82812 59.5625 9.65625 59.1406 9.65625H53.6458C52.724 9.65625 51.9792 8.91146 51.9792 7.98958C51.9792 7.06771 52.724 6.32292 53.6458 6.32292H59.1406C60.4792 6.32292 61.6927 6.86979 62.5729 7.75C63.4531 8.63021 64 9.84375 64 11.1823V25.276V59.1458C64 60.4844 63.4531 61.6979 62.5729 62.5781C61.6927 63.4583 60.4792 64.0052 59.1406 64.0052H4.85937C3.52083 64.0052 2.30729 63.4583 1.42708 62.5781C0.546875 61.6927 0 60.4792 0 59.1406V25.276V11.1823C0 9.84375 0.546875 8.63021 1.42708 7.75C2.30729 6.86979 3.52083 6.32292 4.85937 6.32292H10.7292C11.651 6.32292 12.3958 7.06771 12.3958 7.98958C12.3958 8.91146 11.651 9.65625 10.7292 9.65625H4.85937C4.44271 9.65625 4.0625 9.82812 3.78125 10.1042C3.50521 10.3802 3.33333 10.7604 3.33333 11.1823V23.6042ZM60.6667 26.9427H3.33333V59.1406C3.33333 59.5573 3.50521 59.9375 3.78125 60.2187C4.05729 60.4948 4.4375 60.6667 4.85937 60.6667H59.1406C59.5573 60.6667 59.9375 60.4948 60.2187 60.2187C60.4948 59.9427 60.6667 59.5625 60.6667 59.1406V26.9427ZM26.2656 9.65625C25.3437 9.65625 24.599 8.91146 24.599 7.98958C24.599 7.06771 25.3437 6.32292 26.2656 6.32292H37.4583C38.3802 6.32292 39.125 7.06771 39.125 7.98958C39.125 8.91146 38.3802 9.65625 37.4583 9.65625H26.2656Z" fill="#FF8200"/>
</svg>
