<svg width="64" height="64" viewBox="0 0 57 57" fill="none" xmlns="http://www.w3.org/2000/svg">
<path d="M41.6667 27C49.7668 27 56.3333 33.5665 56.3333 41.6667C56.3333 49.7669 49.7668 56.3334 41.6667 56.3334C33.5665 56.3334 27 49.7669 27 41.6667C27 33.5665 33.5665 27 41.6667 27ZM34.6095 40.7239C34.0888 40.2032 33.2446 40.2032 32.7239 40.7239C32.2032 41.2446 32.2032 42.0888 32.7239 42.6095L38.0572 47.9428C38.5779 48.4635 39.4221 48.4635 39.9428 47.9428L50.6095 37.2762C51.1302 36.7555 51.1302 35.9113 50.6095 35.3906C50.0888 34.8699 49.2446 34.8699 48.7239 35.3906L39 45.1144L34.6095 40.7239ZM27.0594 32.3315C26.2682 33.567 25.6294 34.9095 25.1696 36.3324L6.33978 36.3332C5.23686 36.3332 4.34277 37.2273 4.34277 38.3302V39.8706C4.34277 41.2991 4.8524 42.6807 5.78002 43.7669C9.12218 47.6808 14.3645 49.6696 21.6667 49.6696C23.2572 49.6696 24.7502 49.5752 26.1473 49.3871C26.8011 50.7068 27.6213 51.9297 28.578 53.0307C26.4567 53.458 24.1503 53.6696 21.6667 53.6696C13.2777 53.6696 6.91499 51.2558 2.73819 46.3645C1.19216 44.554 0.342773 42.2514 0.342773 39.8706V38.3302C0.342773 35.0181 3.02772 32.3332 6.33978 32.3332L27.0594 32.3315ZM21.6667 0.345703C29.0305 0.345703 35 6.31524 35 13.679C35 21.0428 29.0305 27.0124 21.6667 27.0124C14.3029 27.0124 8.33333 21.0428 8.33333 13.679C8.33333 6.31524 14.3029 0.345703 21.6667 0.345703ZM21.6667 4.3457C16.512 4.3457 12.3333 8.52438 12.3333 13.679C12.3333 18.8337 16.512 23.0124 21.6667 23.0124C26.8213 23.0124 31 18.8337 31 13.679C31 8.52438 26.8213 4.3457 21.6667 4.3457Z" fill="#FF8200"/>
</svg>

