<svg width="128" height="128" viewBox="0 0 128 128" fill="none" xmlns="http://www.w3.org/2000/svg">
<g clip-path="url(#clip0_117_6)">
<path d="M64.2838 4.7948C25.9915 4.7948 0 24.3183 0 54.6908C0 73.3768 7.7685 88.3511 22.777 97.9848C23.7778 98.6278 24.959 98.7253 24.5155 100.576C22.7257 108.06 19.6135 121.395 19.6135 121.395C19.482 121.96 19.6937 122.549 20.154 122.903C20.6142 123.253 21.2378 123.304 21.7493 123.029C21.7493 123.029 43.7153 110.013 46.645 108.386C53.4783 104.48 59.3642 103.723 63.7842 103.723C94.1545 103.723 128 91.5705 128 54.3645C128 25.509 104.743 4.7948 64.2838 4.7948ZM34.2277 64.5293C30.0122 64.5293 26.5955 61.1128 26.5955 56.8973C26.5955 52.6818 30.012 49.2626 34.2277 49.2626C38.4457 49.2626 41.8623 52.6818 41.8623 56.8973C41.8623 61.1128 38.4455 64.5293 34.2277 64.5293ZM63.9985 64.5293C59.7833 64.5293 56.3665 61.1128 56.3665 56.8973C56.3665 52.6818 59.783 49.2626 63.9985 49.2626C68.2168 49.2626 71.6332 52.6818 71.6332 56.8973C71.6335 61.1128 68.2168 64.5293 63.9985 64.5293ZM93.7722 64.5293C89.5567 64.5293 86.1377 61.1128 86.1377 56.8973C86.1377 52.6818 89.5567 49.2626 93.7722 49.2626C97.9902 49.2626 101.407 52.6818 101.407 56.8973C101.407 61.1128 97.9902 64.5293 93.7722 64.5293Z" fill="white" stroke="white" stroke-width="0.25"/>
</g>
<defs>
<clipPath id="clip0_117_6">
<rect width="128" height="128" fill="white"/>
</clipPath>
</defs>
</svg>

