<svg width="64" height="64" viewBox="0 0 48 44" fill="none" xmlns="http://www.w3.org/2000/svg">
<path d="M41.1437 36.8573L17.9789 13.6949C18.3599 12.7303 18.5887 11.7123 18.6572 10.6773C18.7411 9.57724 18.6124 8.47128 18.2782 7.41982C17.864 6.04797 17.1089 4.80348 16.0834 3.80258C15.166 2.87928 14.0652 2.15858 12.852 1.687C11.6389 1.21542 10.3404 1.00342 9.04022 1.0647H8.86058C7.87393 1.10108 6.90138 1.31078 5.98742 1.68422L10.397 6.10078L11.6738 7.37982L12.6516 8.35906C12.6366 9.55203 12.3355 10.724 11.7737 11.7765C11.6381 11.9828 11.4845 12.1768 11.3147 12.356C10.1612 13.2305 8.75187 13.701 7.30434 13.6949L2.43598 8.81878L0.640176 7.02006C0.362761 7.7184 0.181517 8.4512 0.101417 9.19834L0.0414164 9.61806C-0.160825 11.7596 0.381781 13.9054 1.5777 15.6933C1.92474 16.2084 2.31885 16.6901 2.75494 17.1323C3.58091 17.9621 4.56379 18.6191 5.64628 19.0652C6.72877 19.5112 7.88921 19.7373 9.05998 19.7303C10.2904 19.7244 11.5088 19.4872 12.6515 19.0309L31.8259 38.2161L36.6344 43.0124H39.308L41.9617 40.3544V37.6764L41.1437 36.8573ZM15.0012 25.6333L20.466 31.0981L8.51566 43.0485H4.8223L3.02082 41.2469V37.5837L15.0012 25.6333ZM48 13.6228L40.7637 20.8591L35.5693 15.9948L30.0444 21.5197L24.5796 16.0549L30.0744 10.53L23.5887 4.04446L26.3211 0.95166L35.3291 2.75334L48 13.6228Z" fill="#FF8200"/>
</svg>

